<svg width="60" height="61" viewBox="0 0 60 61" fill="none" xmlns="http://www.w3.org/2000/svg">
<path d="M35 37.96L42.93 30.03C44.2565 28.7046 46.0549 27.9601 47.93 27.96H50C51.3261 27.96 52.5979 28.4867 53.5355 29.4244C54.4732 30.3621 55 31.6339 55 32.96C55 34.286 54.4732 35.5578 53.5355 36.4955C52.5979 37.4332 51.3261 37.96 50 37.96H10C8.67392 37.96 7.40215 37.4332 6.46447 36.4955C5.52678 35.5578 5 34.286 5 32.96C5 31.6339 5.52678 30.3621 6.46447 29.4244C7.40215 28.4867 8.67392 27.96 10 27.96H19.1425C22.8925 27.96 26.49 29.45 29.1425 32.1025L35 37.96Z" stroke="white" stroke-width="2.91667" stroke-linecap="round" stroke-linejoin="round"/>
<path d="M7.5 37.96H52.5V42.96C52.5 44.9491 51.7098 46.8567 50.3033 48.2633C48.8968 49.6698 46.9891 50.46 45 50.46H15C13.0109 50.46 11.1032 49.6698 9.6967 48.2633C8.29018 46.8567 7.5 44.9491 7.5 42.96V37.96Z" fill="white" stroke="white" stroke-width="2.91667" stroke-linecap="round" stroke-linejoin="round"/>
<path fill-rule="evenodd" clip-rule="evenodd" d="M13.6675 11.845C18.175 9.10246 23.95 7.95996 30 7.95996C36.05 7.95996 41.825 9.10246 46.3325 11.845C50.9425 14.6475 54.105 19.06 54.8375 25.165C55.205 28.225 52.6675 30.46 50 30.46H10C7.3325 30.46 4.795 28.225 5.1625 25.165C5.895 19.06 9.0575 14.6475 13.6675 11.845ZM17.5 15.46C16.837 15.46 16.2011 15.7234 15.7322 16.1922C15.2634 16.661 15 17.2969 15 17.96C15 18.623 15.2634 19.2589 15.7322 19.7277C16.2011 20.1966 16.837 20.46 17.5 20.46C18.163 20.46 18.8014 20.1966 19.2703 19.7277C19.7391 19.2589 20.0025 18.623 20.0025 17.96C20.0025 17.2969 19.7391 16.661 19.2703 16.1922C18.8014 15.7234 18.163 15.46 17.5 15.46ZM37.5 17.96C37.5 17.2969 37.7634 16.661 38.2322 16.1922C38.7011 15.7234 39.337 15.46 40 15.46C40.663 15.46 41.3014 15.7234 41.7703 16.1922C42.2391 16.661 42.5025 17.2969 42.5025 17.96C42.5025 18.623 42.2391 19.2589 41.7703 19.7277C41.3014 20.1966 40.6655 20.46 40.0025 20.46C39.3395 20.46 38.7011 20.1966 38.2322 19.7277C37.7634 19.2589 37.5 18.623 37.5 17.96ZM27.5 20.46C26.837 20.46 26.2011 20.7234 25.7322 21.1922C25.2634 21.661 25 22.2969 25 22.96C25 23.623 25.2634 24.2589 25.7322 24.7277C26.2011 25.1966 26.837 25.46 27.5 25.46H27.5025C28.1655 25.46 28.8014 25.1966 29.2703 24.7277C29.7391 24.2589 30.0025 23.623 30.0025 22.96C30.0025 22.2969 29.7391 21.661 29.2703 21.1922C28.8014 20.7234 28.1655 20.46 27.5025 20.46H27.5Z" fill="white"/>
</svg>
