<svg width="24" height="25" viewBox="0 0 24 25" fill="none" xmlns="http://www.w3.org/2000/svg">
<path d="M12.0094 2.20996C9.82213 2.21244 7.72515 3.08243 6.17851 4.62907C4.63187 6.17571 3.76188 8.27269 3.7594 10.46C3.7594 17.5193 11.2594 22.8537 11.5781 23.0787C11.7059 23.1638 11.8559 23.2091 12.0094 23.2091C12.1629 23.2091 12.3129 23.1638 12.4406 23.0787C12.7594 22.8537 20.2594 17.5193 20.2594 10.46C20.2569 8.27269 19.3869 6.17571 17.8403 4.62907C16.2937 3.08243 14.1967 2.21244 12.0094 2.20996ZM12.0094 7.45996C12.6027 7.45996 13.1828 7.63591 13.6761 7.96555C14.1695 8.2952 14.554 8.76373 14.781 9.31191C15.0081 9.86009 15.0675 10.4633 14.9518 11.0452C14.836 11.6272 14.5503 12.1617 14.1307 12.5813C13.7112 13.0008 13.1766 13.2866 12.5947 13.4023C12.0127 13.5181 11.4095 13.4587 10.8613 13.2316C10.3132 13.0045 9.84464 12.62 9.51499 12.1267C9.18535 11.6333 9.0094 11.0533 9.0094 10.46C9.0094 9.66431 9.32547 8.90125 9.88808 8.33864C10.4507 7.77603 11.2138 7.45996 12.0094 7.45996Z" fill="white"/>
</svg>
