<svg width="184" height="40" viewBox="0 0 184 40" fill="none" xmlns="http://www.w3.org/2000/svg">
<path d="M20 2.5C10.3359 2.5 2.5 10.3359 2.5 20C2.5 29.6641 10.3359 37.5 20 37.5C29.6641 37.5 37.5 29.6641 37.5 20C37.5 10.3359 29.6641 2.5 20 2.5ZM28.4102 15.6914C28.4219 15.875 28.4219 16.0664 28.4219 16.2539C28.4219 21.9883 24.0547 28.5938 16.0742 28.5938C13.6133 28.5938 11.332 27.8789 9.41016 26.6484C9.76172 26.6875 10.0977 26.7031 10.457 26.7031C12.4883 26.7031 14.3555 26.0156 15.8438 24.8516C13.9375 24.8125 12.3359 23.5625 11.7891 21.8438C12.457 21.9414 13.0586 21.9414 13.7461 21.7656C12.7646 21.5662 11.8823 21.0331 11.2493 20.257C10.6162 19.4808 10.2714 18.5094 10.2734 17.5078V17.4531C10.8477 17.7773 11.5234 17.9766 12.2305 18.0039C11.6361 17.6078 11.1487 17.0711 10.8114 16.4415C10.4741 15.8119 10.2974 15.1088 10.2969 14.3945C10.2969 13.5859 10.5078 12.8477 10.8867 12.207C11.9762 13.5482 13.3357 14.6451 14.8768 15.4264C16.418 16.2078 18.1063 16.6561 19.832 16.7422C19.2188 13.793 21.4219 11.4062 24.0703 11.4062C25.3203 11.4062 26.4453 11.9297 27.2383 12.7734C28.2188 12.5898 29.1562 12.2227 29.9922 11.7305C29.668 12.7344 28.9883 13.582 28.0859 14.1172C28.9609 14.0234 29.8047 13.7812 30.5859 13.4414C29.9961 14.3086 29.2578 15.0781 28.4102 15.6914Z" fill="white"/>
<path d="M106.912 13.8416C106.895 12.5793 106.659 11.3296 106.213 10.1483C105.827 9.15185 105.238 8.24693 104.482 7.49131C103.726 6.7357 102.821 6.14601 101.825 5.75993C100.659 5.32219 99.427 5.0855 98.1817 5.05993C96.5783 4.98826 96.07 4.96826 92 4.96826C87.93 4.96826 87.4083 4.96826 85.8167 5.05993C84.5719 5.08569 83.3406 5.32238 82.175 5.75993C81.1784 6.14574 80.2734 6.73534 79.5177 7.49098C78.7621 8.24663 78.1725 9.15169 77.7867 10.1483C77.348 11.3135 77.1119 12.5451 77.0883 13.7899C77.0167 15.3949 76.995 15.9033 76.995 19.9733C76.995 24.0433 76.995 24.5633 77.0883 26.1566C77.1133 27.4033 77.3483 28.6333 77.7867 29.8016C78.1731 30.7979 78.7632 31.7026 79.5191 32.4579C80.275 33.2132 81.1801 33.8026 82.1767 34.1883C83.3391 34.6436 84.5706 34.8972 85.8183 34.9383C87.4233 35.0099 87.9317 35.0316 92.0017 35.0316C96.0717 35.0316 96.5933 35.0316 98.185 34.9383C99.4303 34.9137 100.662 34.6776 101.828 34.2399C102.824 33.8534 103.729 33.2636 104.485 32.508C105.24 31.7524 105.83 30.8477 106.217 29.8516C106.655 28.6849 106.89 27.4549 106.915 26.2066C106.987 24.6033 107.008 24.0949 107.008 20.0233C107.005 15.9533 107.005 15.4366 106.912 13.8416ZM91.99 27.6699C87.7333 27.6699 84.285 24.2216 84.285 19.9649C84.285 15.7083 87.7333 12.2599 91.99 12.2599C94.0335 12.2599 95.9933 13.0717 97.4383 14.5167C98.8832 15.9616 99.695 17.9214 99.695 19.9649C99.695 22.0084 98.8832 23.9682 97.4383 25.4132C95.9933 26.8582 94.0335 27.6699 91.99 27.6699ZM100.002 13.7716C99.7657 13.7718 99.5319 13.7255 99.3138 13.6353C99.0958 13.5451 98.8976 13.4127 98.7307 13.2459C98.5639 13.079 98.4315 12.8808 98.3413 12.6627C98.2511 12.4447 98.2048 12.2109 98.205 11.9749C98.205 11.7391 98.2514 11.5056 98.3417 11.2877C98.4319 11.0698 98.5642 10.8718 98.731 10.7051C98.8977 10.5383 99.0957 10.406 99.3136 10.3158C99.5315 10.2255 99.765 10.1791 100.001 10.1791C100.237 10.1791 100.47 10.2255 100.688 10.3158C100.906 10.406 101.104 10.5383 101.271 10.7051C101.437 10.8718 101.57 11.0698 101.66 11.2877C101.75 11.5056 101.797 11.7391 101.797 11.9749C101.797 12.9683 100.993 13.7716 100.002 13.7716Z" fill="white"/>
<path d="M91.99 24.97C94.7542 24.97 96.995 22.7291 96.995 19.965C96.995 17.2008 94.7542 14.96 91.99 14.96C89.2258 14.96 86.985 17.2008 86.985 19.965C86.985 22.7291 89.2258 24.97 91.99 24.97Z" fill="white"/>
<path d="M147.34 36.6668L149.593 28.3868C148.109 25.8416 147.328 22.9468 147.333 20.0002C147.333 10.7952 154.795 3.3335 164 3.3335C173.205 3.3335 180.667 10.7952 180.667 20.0002C180.667 29.2052 173.205 36.6668 164 36.6668C161.055 36.6716 158.161 35.8921 155.617 34.4085L147.34 36.6668ZM157.985 12.1802C157.77 12.1935 157.559 12.2502 157.367 12.3468C157.186 12.4492 157.021 12.5772 156.877 12.7268C156.677 12.9152 156.563 13.0785 156.442 13.2368C155.826 14.0385 155.494 15.0225 155.5 16.0335C155.503 16.8502 155.717 17.6452 156.05 18.3885C156.732 19.8918 157.853 21.4835 159.335 22.9585C159.692 23.3135 160.04 23.6702 160.415 24.0018C162.254 25.6209 164.445 26.7886 166.815 27.4118L167.763 27.5568C168.072 27.5735 168.38 27.5502 168.69 27.5352C169.175 27.5101 169.649 27.3787 170.078 27.1502C170.297 27.0377 170.51 26.9154 170.717 26.7835C170.717 26.7835 170.788 26.7368 170.925 26.6335C171.15 26.4668 171.288 26.3485 171.475 26.1535C171.613 26.0102 171.733 25.8418 171.825 25.6502C171.955 25.3785 172.085 24.8602 172.138 24.4285C172.178 24.0985 172.167 23.9185 172.162 23.8068C172.155 23.6285 172.007 23.4435 171.845 23.3652L170.875 22.9302C170.875 22.9302 169.425 22.2985 168.54 21.8952C168.447 21.8545 168.347 21.8313 168.245 21.8268C168.131 21.8151 168.016 21.8279 167.907 21.8645C167.798 21.901 167.699 21.9603 167.615 22.0385V22.0352C167.607 22.0352 167.495 22.1302 166.29 23.5902C166.221 23.6831 166.126 23.7533 166.016 23.7919C165.907 23.8305 165.789 23.8357 165.677 23.8068C165.568 23.7778 165.462 23.741 165.358 23.6968C165.152 23.6102 165.08 23.5768 164.938 23.5152L164.93 23.5118C163.976 23.0955 163.094 22.5332 162.313 21.8452C162.103 21.6618 161.908 21.4618 161.708 21.2685C161.053 20.6406 160.481 19.9302 160.008 19.1552L159.91 18.9968C159.839 18.8904 159.782 18.7757 159.74 18.6552C159.677 18.4102 159.842 18.2135 159.842 18.2135C159.842 18.2135 160.247 17.7702 160.435 17.5302C160.592 17.3307 160.738 17.1232 160.873 16.9085C161.07 16.5918 161.132 16.2668 161.028 16.0152C160.562 14.8752 160.078 13.7402 159.582 12.6135C159.483 12.3902 159.192 12.2302 158.927 12.1985C158.837 12.1885 158.747 12.1785 158.657 12.1718C158.433 12.1607 158.208 12.1646 157.985 12.1802Z" fill="white"/>
</svg>
